<mxfile host="app.diagrams.net" modified="2024-03-21T20:32:30.550Z" agent="Mozilla/5.0 (Windows NT 10.0; Win64; x64; rv:123.0) Gecko/20100101 Firefox/123.0" etag="hIuzP4Hu3J_u7sltYX3x" version="24.0.7" type="device">
  <diagram id="R2lEEEUBdFMjLlhIrx00" name="Page-1">
    <mxGraphModel dx="3500" dy="2560" grid="1" gridSize="10" guides="1" tooltips="1" connect="1" arrows="1" fold="1" page="1" pageScale="1" pageWidth="1900" pageHeight="1900" math="0" shadow="0" extFonts="Permanent Marker^https://fonts.googleapis.com/css?family=Permanent+Marker">
      <root>
        <mxCell id="0" />
        <mxCell id="1" parent="0" />
        <mxCell id="pRzYhvpfBcUrYCqgIIzx-1" value="&lt;div&gt;Users&lt;/div&gt;" style="rounded=0;whiteSpace=wrap;html=1;" parent="1" vertex="1">
          <mxGeometry x="-940" y="-1480" width="120" height="60" as="geometry" />
        </mxCell>
        <mxCell id="pRzYhvpfBcUrYCqgIIzx-2" value="" style="triangle;whiteSpace=wrap;html=1;rotation=-90;" parent="1" vertex="1">
          <mxGeometry x="-910" y="-1360" width="60" height="80" as="geometry" />
        </mxCell>
        <mxCell id="pRzYhvpfBcUrYCqgIIzx-3" value="&lt;div&gt;End-Users&lt;/div&gt;" style="rounded=0;whiteSpace=wrap;html=1;" parent="1" vertex="1">
          <mxGeometry x="-1150" y="-1230" width="120" height="60" as="geometry" />
        </mxCell>
        <mxCell id="pRzYhvpfBcUrYCqgIIzx-4" value="Staff" style="rounded=0;whiteSpace=wrap;html=1;" parent="1" vertex="1">
          <mxGeometry x="-730" y="-1230" width="120" height="60" as="geometry" />
        </mxCell>
        <mxCell id="pRzYhvpfBcUrYCqgIIzx-5" value="" style="triangle;whiteSpace=wrap;html=1;rotation=-90;" parent="1" vertex="1">
          <mxGeometry x="-1120" y="-1130" width="60" height="80" as="geometry" />
        </mxCell>
        <mxCell id="pRzYhvpfBcUrYCqgIIzx-6" value="" style="triangle;whiteSpace=wrap;html=1;rotation=-90;" parent="1" vertex="1">
          <mxGeometry x="-700" y="-1130" width="60" height="80" as="geometry" />
        </mxCell>
        <mxCell id="pRzYhvpfBcUrYCqgIIzx-7" value="Buyers" style="rounded=0;whiteSpace=wrap;html=1;" parent="1" vertex="1">
          <mxGeometry x="-1280" y="-970" width="120" height="60" as="geometry" />
        </mxCell>
        <mxCell id="pRzYhvpfBcUrYCqgIIzx-8" value="Administrative staff" style="rounded=0;whiteSpace=wrap;html=1;" parent="1" vertex="1">
          <mxGeometry x="-535" y="-970" width="120" height="60" as="geometry" />
        </mxCell>
        <mxCell id="pRzYhvpfBcUrYCqgIIzx-9" value="Customer Representatives" style="rounded=0;whiteSpace=wrap;html=1;" parent="1" vertex="1">
          <mxGeometry x="-850" y="-970" width="120" height="60" as="geometry" />
        </mxCell>
        <mxCell id="pRzYhvpfBcUrYCqgIIzx-10" value="Sellers" style="rounded=0;whiteSpace=wrap;html=1;" parent="1" vertex="1">
          <mxGeometry x="-1020" y="-970" width="120" height="60" as="geometry" />
        </mxCell>
        <mxCell id="pRzYhvpfBcUrYCqgIIzx-12" value="" style="endArrow=none;html=1;rounded=0;fontSize=12;startSize=8;endSize=8;curved=1;entryX=0.5;entryY=1;entryDx=0;entryDy=0;exitX=1;exitY=0.5;exitDx=0;exitDy=0;" parent="1" source="pRzYhvpfBcUrYCqgIIzx-2" target="pRzYhvpfBcUrYCqgIIzx-1" edge="1">
          <mxGeometry width="50" height="50" relative="1" as="geometry">
            <mxPoint x="-740" y="-1160" as="sourcePoint" />
            <mxPoint x="-690" y="-1210" as="targetPoint" />
          </mxGeometry>
        </mxCell>
        <mxCell id="pRzYhvpfBcUrYCqgIIzx-13" value="" style="endArrow=none;html=1;rounded=0;fontSize=12;startSize=8;endSize=8;curved=1;exitX=0;exitY=0.986;exitDx=0;exitDy=0;exitPerimeter=0;" parent="1" source="pRzYhvpfBcUrYCqgIIzx-2" edge="1">
          <mxGeometry width="50" height="50" relative="1" as="geometry">
            <mxPoint x="-770" y="-1289.4" as="sourcePoint" />
            <mxPoint x="-670" y="-1290" as="targetPoint" />
          </mxGeometry>
        </mxCell>
        <mxCell id="pRzYhvpfBcUrYCqgIIzx-14" value="" style="endArrow=none;html=1;rounded=0;fontSize=12;startSize=8;endSize=8;curved=1;entryX=0.5;entryY=1;entryDx=0;entryDy=0;exitX=0.5;exitY=0;exitDx=0;exitDy=0;" parent="1" source="pRzYhvpfBcUrYCqgIIzx-4" edge="1">
          <mxGeometry width="50" height="50" relative="1" as="geometry">
            <mxPoint x="-670" y="-1250" as="sourcePoint" />
            <mxPoint x="-670.31" y="-1290" as="targetPoint" />
          </mxGeometry>
        </mxCell>
        <mxCell id="pRzYhvpfBcUrYCqgIIzx-15" value="" style="endArrow=none;html=1;rounded=0;fontSize=12;startSize=8;endSize=8;curved=1;exitX=0;exitY=0.986;exitDx=0;exitDy=0;exitPerimeter=0;" parent="1" edge="1">
          <mxGeometry width="50" height="50" relative="1" as="geometry">
            <mxPoint x="-1090" y="-1290" as="sourcePoint" />
            <mxPoint x="-919" y="-1290" as="targetPoint" />
          </mxGeometry>
        </mxCell>
        <mxCell id="pRzYhvpfBcUrYCqgIIzx-16" value="" style="endArrow=none;html=1;rounded=0;fontSize=12;startSize=8;endSize=8;curved=1;entryX=0.5;entryY=1;entryDx=0;entryDy=0;exitX=0.5;exitY=0;exitDx=0;exitDy=0;" parent="1" source="pRzYhvpfBcUrYCqgIIzx-3" edge="1">
          <mxGeometry width="50" height="50" relative="1" as="geometry">
            <mxPoint x="-1090" y="-1250" as="sourcePoint" />
            <mxPoint x="-1090" y="-1290" as="targetPoint" />
          </mxGeometry>
        </mxCell>
        <mxCell id="pRzYhvpfBcUrYCqgIIzx-17" value="" style="endArrow=none;html=1;rounded=0;fontSize=12;startSize=8;endSize=8;curved=1;entryX=0.5;entryY=1;entryDx=0;entryDy=0;exitX=1;exitY=0.5;exitDx=0;exitDy=0;" parent="1" source="pRzYhvpfBcUrYCqgIIzx-5" target="pRzYhvpfBcUrYCqgIIzx-3" edge="1">
          <mxGeometry width="50" height="50" relative="1" as="geometry">
            <mxPoint x="-1080" y="-1220" as="sourcePoint" />
            <mxPoint x="-1080" y="-1280" as="targetPoint" />
          </mxGeometry>
        </mxCell>
        <mxCell id="pRzYhvpfBcUrYCqgIIzx-18" value="" style="endArrow=none;html=1;rounded=0;fontSize=12;startSize=8;endSize=8;curved=1;entryX=0.5;entryY=1;entryDx=0;entryDy=0;exitX=1;exitY=0.5;exitDx=0;exitDy=0;" parent="1" source="pRzYhvpfBcUrYCqgIIzx-6" target="pRzYhvpfBcUrYCqgIIzx-4" edge="1">
          <mxGeometry width="50" height="50" relative="1" as="geometry">
            <mxPoint x="-770" y="-1040" as="sourcePoint" />
            <mxPoint x="-770" y="-1100" as="targetPoint" />
          </mxGeometry>
        </mxCell>
        <mxCell id="pRzYhvpfBcUrYCqgIIzx-19" value="" style="endArrow=none;html=1;rounded=0;fontSize=12;startSize=8;endSize=8;curved=1;exitX=0;exitY=1.002;exitDx=0;exitDy=0;exitPerimeter=0;" parent="1" source="pRzYhvpfBcUrYCqgIIzx-5" edge="1">
          <mxGeometry width="50" height="50" relative="1" as="geometry">
            <mxPoint x="-1020" y="-1060" as="sourcePoint" />
            <mxPoint x="-960" y="-1060" as="targetPoint" />
          </mxGeometry>
        </mxCell>
        <mxCell id="pRzYhvpfBcUrYCqgIIzx-20" value="" style="endArrow=none;html=1;rounded=0;fontSize=12;startSize=8;endSize=8;curved=1;" parent="1" edge="1">
          <mxGeometry width="50" height="50" relative="1" as="geometry">
            <mxPoint x="-1220" y="-1060" as="sourcePoint" />
            <mxPoint x="-1130" y="-1060" as="targetPoint" />
          </mxGeometry>
        </mxCell>
        <mxCell id="pRzYhvpfBcUrYCqgIIzx-21" value="" style="endArrow=none;html=1;rounded=0;fontSize=12;startSize=8;endSize=8;curved=1;exitX=0.5;exitY=0;exitDx=0;exitDy=0;" parent="1" source="pRzYhvpfBcUrYCqgIIzx-7" edge="1">
          <mxGeometry width="50" height="50" relative="1" as="geometry">
            <mxPoint x="-1110" y="-990" as="sourcePoint" />
            <mxPoint x="-1220" y="-1060" as="targetPoint" />
          </mxGeometry>
        </mxCell>
        <mxCell id="pRzYhvpfBcUrYCqgIIzx-22" value="" style="endArrow=none;html=1;rounded=0;fontSize=12;startSize=8;endSize=8;curved=1;exitX=0.5;exitY=0;exitDx=0;exitDy=0;" parent="1" source="pRzYhvpfBcUrYCqgIIzx-10" edge="1">
          <mxGeometry width="50" height="50" relative="1" as="geometry">
            <mxPoint x="-1070" y="-1100" as="sourcePoint" />
            <mxPoint x="-960" y="-1060" as="targetPoint" />
          </mxGeometry>
        </mxCell>
        <mxCell id="pRzYhvpfBcUrYCqgIIzx-23" value="" style="endArrow=none;html=1;rounded=0;fontSize=12;startSize=8;endSize=8;curved=1;exitX=0;exitY=1.002;exitDx=0;exitDy=0;exitPerimeter=0;" parent="1" edge="1">
          <mxGeometry width="50" height="50" relative="1" as="geometry">
            <mxPoint x="-634" y="-1060" as="sourcePoint" />
            <mxPoint x="-474" y="-1060" as="targetPoint" />
          </mxGeometry>
        </mxCell>
        <mxCell id="pRzYhvpfBcUrYCqgIIzx-24" value="" style="endArrow=none;html=1;rounded=0;fontSize=12;startSize=8;endSize=8;curved=1;exitX=0.5;exitY=0;exitDx=0;exitDy=0;" parent="1" edge="1">
          <mxGeometry width="50" height="50" relative="1" as="geometry">
            <mxPoint x="-475" y="-970" as="sourcePoint" />
            <mxPoint x="-474" y="-1060" as="targetPoint" />
          </mxGeometry>
        </mxCell>
        <mxCell id="pRzYhvpfBcUrYCqgIIzx-25" value="" style="endArrow=none;html=1;rounded=0;fontSize=12;startSize=8;endSize=8;curved=1;" parent="1" edge="1">
          <mxGeometry width="50" height="50" relative="1" as="geometry">
            <mxPoint x="-790" y="-1060" as="sourcePoint" />
            <mxPoint x="-700" y="-1060" as="targetPoint" />
          </mxGeometry>
        </mxCell>
        <mxCell id="pRzYhvpfBcUrYCqgIIzx-26" value="" style="endArrow=none;html=1;rounded=0;fontSize=12;startSize=8;endSize=8;curved=1;exitX=0.5;exitY=0;exitDx=0;exitDy=0;" parent="1" edge="1">
          <mxGeometry width="50" height="50" relative="1" as="geometry">
            <mxPoint x="-790" y="-970" as="sourcePoint" />
            <mxPoint x="-790" y="-1060" as="targetPoint" />
          </mxGeometry>
        </mxCell>
        <mxCell id="pRzYhvpfBcUrYCqgIIzx-27" value="{complete, overlapping}" style="text;html=1;align=center;verticalAlign=middle;whiteSpace=wrap;rounded=0;fontSize=16;" parent="1" vertex="1">
          <mxGeometry x="-1300" y="-1110" width="175" height="30" as="geometry" />
        </mxCell>
        <mxCell id="pRzYhvpfBcUrYCqgIIzx-28" value="{complete, disjoint}" style="text;html=1;align=center;verticalAlign=middle;whiteSpace=wrap;rounded=0;fontSize=16;rotation=-45;" parent="1" vertex="1">
          <mxGeometry x="-725" y="-1775" width="145" height="30" as="geometry" />
        </mxCell>
        <mxCell id="pRzYhvpfBcUrYCqgIIzx-29" value="{complete, disjoint}" style="text;html=1;align=center;verticalAlign=middle;whiteSpace=wrap;rounded=0;fontSize=16;" parent="1" vertex="1">
          <mxGeometry x="-635" y="-1105" width="145" height="30" as="geometry" />
        </mxCell>
        <mxCell id="pRzYhvpfBcUrYCqgIIzx-30" value="Item (Computers)" style="rounded=0;whiteSpace=wrap;html=1;" parent="1" vertex="1">
          <mxGeometry x="-955" y="-1710" width="120" height="60" as="geometry" />
        </mxCell>
        <mxCell id="pRzYhvpfBcUrYCqgIIzx-32" value="Date" style="ellipse;whiteSpace=wrap;html=1;" parent="1" vertex="1">
          <mxGeometry x="-1860" y="-1630" width="130" height="40" as="geometry" />
        </mxCell>
        <mxCell id="pRzYhvpfBcUrYCqgIIzx-33" value="Time" style="ellipse;whiteSpace=wrap;html=1;" parent="1" vertex="1">
          <mxGeometry x="-1850" y="-1700" width="130" height="40" as="geometry" />
        </mxCell>
        <mxCell id="pRzYhvpfBcUrYCqgIIzx-34" value="" style="endArrow=none;html=1;rounded=0;fontSize=12;startSize=8;endSize=8;curved=1;entryX=0;entryY=0.5;entryDx=0;entryDy=0;exitX=1;exitY=0.5;exitDx=0;exitDy=0;" parent="1" source="pRzYhvpfBcUrYCqgIIzx-33" target="eabMVtIRwN8n3JuVJz9i-25" edge="1">
          <mxGeometry width="50" height="50" relative="1" as="geometry">
            <mxPoint x="-1770" y="-1350" as="sourcePoint" />
            <mxPoint x="-1770" y="-1420" as="targetPoint" />
          </mxGeometry>
        </mxCell>
        <mxCell id="pRzYhvpfBcUrYCqgIIzx-35" value="" style="endArrow=none;html=1;rounded=0;fontSize=12;startSize=8;endSize=8;curved=1;entryX=0;entryY=0.5;entryDx=0;entryDy=0;exitX=1;exitY=0.5;exitDx=0;exitDy=0;" parent="1" source="pRzYhvpfBcUrYCqgIIzx-32" target="eabMVtIRwN8n3JuVJz9i-25" edge="1">
          <mxGeometry width="50" height="50" relative="1" as="geometry">
            <mxPoint x="-1760" y="-1340" as="sourcePoint" />
            <mxPoint x="-1760" y="-1410" as="targetPoint" />
          </mxGeometry>
        </mxCell>
        <mxCell id="pRzYhvpfBcUrYCqgIIzx-36" value="Initial price" style="ellipse;whiteSpace=wrap;html=1;" parent="1" vertex="1">
          <mxGeometry x="-1650" y="-1890" width="160" height="60" as="geometry" />
        </mxCell>
        <mxCell id="pRzYhvpfBcUrYCqgIIzx-37" value="Bid Increment" style="ellipse;whiteSpace=wrap;html=1;" parent="1" vertex="1">
          <mxGeometry x="-1465" y="-1860" width="160" height="60" as="geometry" />
        </mxCell>
        <mxCell id="pRzYhvpfBcUrYCqgIIzx-40" value="" style="endArrow=none;html=1;rounded=0;fontSize=12;startSize=8;endSize=8;curved=1;entryX=0;entryY=0.5;entryDx=0;entryDy=0;" parent="1" target="pRzYhvpfBcUrYCqgIIzx-7" edge="1">
          <mxGeometry width="50" height="50" relative="1" as="geometry">
            <mxPoint x="-1525" y="-940" as="sourcePoint" />
            <mxPoint x="-1280" y="-1380" as="targetPoint" />
          </mxGeometry>
        </mxCell>
        <mxCell id="pRzYhvpfBcUrYCqgIIzx-41" value="" style="endArrow=none;html=1;rounded=0;fontSize=12;startSize=8;endSize=8;curved=1;entryX=0.5;entryY=1;entryDx=0;entryDy=0;exitX=0.5;exitY=0;exitDx=0;exitDy=0;strokeWidth=3;startArrow=classic;startFill=1;" parent="1" source="eabMVtIRwN8n3JuVJz9i-42" target="pRzYhvpfBcUrYCqgIIzx-31" edge="1">
          <mxGeometry width="50" height="50" relative="1" as="geometry">
            <mxPoint x="-1588" y="-1470" as="sourcePoint" />
            <mxPoint x="-600" y="-1630" as="targetPoint" />
          </mxGeometry>
        </mxCell>
        <mxCell id="pRzYhvpfBcUrYCqgIIzx-43" value="" style="endArrow=none;html=1;rounded=0;fontSize=12;startSize=8;endSize=8;curved=1;entryX=0.5;entryY=1;entryDx=0;entryDy=0;exitX=0.5;exitY=0;exitDx=0;exitDy=0;" parent="1" source="eabMVtIRwN8n3JuVJz9i-25" target="pRzYhvpfBcUrYCqgIIzx-36" edge="1">
          <mxGeometry width="50" height="50" relative="1" as="geometry">
            <mxPoint x="-1375" y="-1550" as="sourcePoint" />
            <mxPoint x="-1500" y="-1640" as="targetPoint" />
          </mxGeometry>
        </mxCell>
        <mxCell id="pRzYhvpfBcUrYCqgIIzx-44" value="" style="endArrow=none;html=1;rounded=0;fontSize=12;startSize=8;endSize=8;curved=1;entryX=0.5;entryY=1;entryDx=0;entryDy=0;exitX=0.5;exitY=0;exitDx=0;exitDy=0;" parent="1" source="eabMVtIRwN8n3JuVJz9i-25" target="pRzYhvpfBcUrYCqgIIzx-37" edge="1">
          <mxGeometry width="50" height="50" relative="1" as="geometry">
            <mxPoint x="-1500" y="-1700" as="sourcePoint" />
            <mxPoint x="-1730" y="-1810" as="targetPoint" />
          </mxGeometry>
        </mxCell>
        <mxCell id="eabMVtIRwN8n3JuVJz9i-1" value="Name" style="ellipse;whiteSpace=wrap;html=1;" parent="1" vertex="1">
          <mxGeometry x="-1150" y="-1530" width="140" height="40" as="geometry" />
        </mxCell>
        <mxCell id="eabMVtIRwN8n3JuVJz9i-2" value="&lt;u&gt;Email address&lt;/u&gt;" style="ellipse;whiteSpace=wrap;html=1;" parent="1" vertex="1">
          <mxGeometry x="-735" y="-1465" width="130" height="45" as="geometry" />
        </mxCell>
        <mxCell id="eabMVtIRwN8n3JuVJz9i-3" value="Password" style="ellipse;whiteSpace=wrap;html=1;" parent="1" vertex="1">
          <mxGeometry x="-730" y="-1395" width="150" height="50" as="geometry" />
        </mxCell>
        <mxCell id="eabMVtIRwN8n3JuVJz9i-4" value="" style="endArrow=none;html=1;rounded=0;fontSize=12;startSize=8;endSize=8;curved=1;entryX=1;entryY=0.5;entryDx=0;entryDy=0;exitX=0;exitY=0.5;exitDx=0;exitDy=0;" parent="1" source="eabMVtIRwN8n3JuVJz9i-3" target="pRzYhvpfBcUrYCqgIIzx-1" edge="1">
          <mxGeometry width="50" height="50" relative="1" as="geometry">
            <mxPoint x="-870" y="-1340" as="sourcePoint" />
            <mxPoint x="-870" y="-1410" as="targetPoint" />
          </mxGeometry>
        </mxCell>
        <mxCell id="eabMVtIRwN8n3JuVJz9i-5" value="" style="endArrow=none;html=1;rounded=0;fontSize=12;startSize=8;endSize=8;curved=1;entryX=0;entryY=0.5;entryDx=0;entryDy=0;exitX=1;exitY=0.5;exitDx=0;exitDy=0;" parent="1" source="pRzYhvpfBcUrYCqgIIzx-1" target="eabMVtIRwN8n3JuVJz9i-2" edge="1">
          <mxGeometry width="50" height="50" relative="1" as="geometry">
            <mxPoint x="-860" y="-1330" as="sourcePoint" />
            <mxPoint x="-860" y="-1400" as="targetPoint" />
          </mxGeometry>
        </mxCell>
        <mxCell id="eabMVtIRwN8n3JuVJz9i-6" value="" style="endArrow=none;html=1;rounded=0;fontSize=12;startSize=8;endSize=8;curved=1;entryX=0;entryY=0.5;entryDx=0;entryDy=0;exitX=1;exitY=0.5;exitDx=0;exitDy=0;" parent="1" source="eabMVtIRwN8n3JuVJz9i-1" target="pRzYhvpfBcUrYCqgIIzx-1" edge="1">
          <mxGeometry width="50" height="50" relative="1" as="geometry">
            <mxPoint x="-850" y="-1320" as="sourcePoint" />
            <mxPoint x="-850" y="-1390" as="targetPoint" />
          </mxGeometry>
        </mxCell>
        <mxCell id="eabMVtIRwN8n3JuVJz9i-7" value="Street address" style="ellipse;whiteSpace=wrap;html=1;" parent="1" vertex="1">
          <mxGeometry x="-1160" y="-1480" width="170" height="40" as="geometry" />
        </mxCell>
        <mxCell id="eabMVtIRwN8n3JuVJz9i-8" value="Phone number" style="ellipse;whiteSpace=wrap;html=1;" parent="1" vertex="1">
          <mxGeometry x="-1170" y="-1420" width="180" height="40" as="geometry" />
        </mxCell>
        <mxCell id="eabMVtIRwN8n3JuVJz9i-9" value="" style="endArrow=none;html=1;rounded=0;fontSize=12;startSize=8;endSize=8;curved=1;entryX=0;entryY=0.5;entryDx=0;entryDy=0;exitX=1;exitY=0.5;exitDx=0;exitDy=0;" parent="1" source="eabMVtIRwN8n3JuVJz9i-7" target="pRzYhvpfBcUrYCqgIIzx-1" edge="1">
          <mxGeometry width="50" height="50" relative="1" as="geometry">
            <mxPoint x="-1000" y="-1432" as="sourcePoint" />
            <mxPoint x="-930" y="-1440" as="targetPoint" />
          </mxGeometry>
        </mxCell>
        <mxCell id="eabMVtIRwN8n3JuVJz9i-10" value="" style="endArrow=none;html=1;rounded=0;fontSize=12;startSize=8;endSize=8;curved=1;entryX=0;entryY=0.5;entryDx=0;entryDy=0;exitX=1;exitY=0.5;exitDx=0;exitDy=0;" parent="1" source="eabMVtIRwN8n3JuVJz9i-8" target="pRzYhvpfBcUrYCqgIIzx-1" edge="1">
          <mxGeometry width="50" height="50" relative="1" as="geometry">
            <mxPoint x="-990" y="-1422" as="sourcePoint" />
            <mxPoint x="-920" y="-1430" as="targetPoint" />
          </mxGeometry>
        </mxCell>
        <mxCell id="eabMVtIRwN8n3JuVJz9i-11" value="Business name" style="ellipse;whiteSpace=wrap;html=1;" parent="1" vertex="1">
          <mxGeometry x="-1120" y="-840" width="120" height="80" as="geometry" />
        </mxCell>
        <mxCell id="eabMVtIRwN8n3JuVJz9i-13" value="Business address" style="ellipse;whiteSpace=wrap;html=1;" parent="1" vertex="1">
          <mxGeometry x="-855" y="-720" width="120" height="80" as="geometry" />
        </mxCell>
        <mxCell id="eabMVtIRwN8n3JuVJz9i-14" value="Business type" style="ellipse;whiteSpace=wrap;html=1;" parent="1" vertex="1">
          <mxGeometry x="-840" y="-830" width="120" height="80" as="geometry" />
        </mxCell>
        <mxCell id="eabMVtIRwN8n3JuVJz9i-18" value="" style="group" parent="1" vertex="1" connectable="0">
          <mxGeometry x="-1090" y="-710" width="220" height="90" as="geometry" />
        </mxCell>
        <mxCell id="eabMVtIRwN8n3JuVJz9i-17" value="" style="ellipse;whiteSpace=wrap;html=1;" parent="eabMVtIRwN8n3JuVJz9i-18" vertex="1">
          <mxGeometry width="220" height="90" as="geometry" />
        </mxCell>
        <mxCell id="eabMVtIRwN8n3JuVJz9i-12" value="Owners/officers/directors/account managers" style="ellipse;whiteSpace=wrap;html=1;" parent="eabMVtIRwN8n3JuVJz9i-18" vertex="1">
          <mxGeometry x="22" y="9" width="176" height="72" as="geometry" />
        </mxCell>
        <mxCell id="eabMVtIRwN8n3JuVJz9i-19" value="" style="endArrow=none;html=1;rounded=0;fontSize=12;startSize=8;endSize=8;curved=1;exitX=0.5;exitY=0;exitDx=0;exitDy=0;entryX=0.5;entryY=1;entryDx=0;entryDy=0;" parent="1" source="eabMVtIRwN8n3JuVJz9i-11" target="pRzYhvpfBcUrYCqgIIzx-10" edge="1">
          <mxGeometry width="50" height="50" relative="1" as="geometry">
            <mxPoint x="-950" y="-960" as="sourcePoint" />
            <mxPoint x="-950" y="-1050" as="targetPoint" />
          </mxGeometry>
        </mxCell>
        <mxCell id="eabMVtIRwN8n3JuVJz9i-20" value="" style="endArrow=none;html=1;rounded=0;fontSize=12;startSize=8;endSize=8;curved=1;exitX=0.5;exitY=0;exitDx=0;exitDy=0;entryX=0.5;entryY=1;entryDx=0;entryDy=0;" parent="1" source="eabMVtIRwN8n3JuVJz9i-17" target="pRzYhvpfBcUrYCqgIIzx-10" edge="1">
          <mxGeometry width="50" height="50" relative="1" as="geometry">
            <mxPoint x="-940" y="-950" as="sourcePoint" />
            <mxPoint x="-940" y="-1040" as="targetPoint" />
          </mxGeometry>
        </mxCell>
        <mxCell id="eabMVtIRwN8n3JuVJz9i-21" value="" style="endArrow=none;html=1;rounded=0;fontSize=12;startSize=8;endSize=8;curved=1;exitX=0.5;exitY=0;exitDx=0;exitDy=0;entryX=0.5;entryY=1;entryDx=0;entryDy=0;" parent="1" source="eabMVtIRwN8n3JuVJz9i-14" target="pRzYhvpfBcUrYCqgIIzx-10" edge="1">
          <mxGeometry width="50" height="50" relative="1" as="geometry">
            <mxPoint x="-930" y="-940" as="sourcePoint" />
            <mxPoint x="-930" y="-1030" as="targetPoint" />
          </mxGeometry>
        </mxCell>
        <mxCell id="eabMVtIRwN8n3JuVJz9i-22" value="" style="endArrow=none;html=1;rounded=0;fontSize=12;startSize=8;endSize=8;curved=1;exitX=0.5;exitY=0;exitDx=0;exitDy=0;entryX=0.5;entryY=1;entryDx=0;entryDy=0;" parent="1" source="eabMVtIRwN8n3JuVJz9i-13" target="pRzYhvpfBcUrYCqgIIzx-10" edge="1">
          <mxGeometry width="50" height="50" relative="1" as="geometry">
            <mxPoint x="-920" y="-930" as="sourcePoint" />
            <mxPoint x="-920" y="-1020" as="targetPoint" />
          </mxGeometry>
        </mxCell>
        <mxCell id="eabMVtIRwN8n3JuVJz9i-23" value="Minimum price" style="ellipse;whiteSpace=wrap;html=1;" parent="1" vertex="1">
          <mxGeometry x="-1790" y="-1860" width="120" height="80" as="geometry" />
        </mxCell>
        <mxCell id="eabMVtIRwN8n3JuVJz9i-24" value="" style="endArrow=none;html=1;rounded=0;fontSize=12;startSize=8;endSize=8;curved=1;entryX=1;entryY=1;entryDx=0;entryDy=0;exitX=0.5;exitY=0;exitDx=0;exitDy=0;" parent="1" source="eabMVtIRwN8n3JuVJz9i-25" target="eabMVtIRwN8n3JuVJz9i-23" edge="1">
          <mxGeometry width="50" height="50" relative="1" as="geometry">
            <mxPoint x="-1500" y="-1700" as="sourcePoint" />
            <mxPoint x="-1560" y="-1820" as="targetPoint" />
          </mxGeometry>
        </mxCell>
        <mxCell id="eabMVtIRwN8n3JuVJz9i-26" value="" style="group" parent="1" vertex="1" connectable="0">
          <mxGeometry x="-1595" y="-1710" width="140" height="80" as="geometry" />
        </mxCell>
        <mxCell id="eabMVtIRwN8n3JuVJz9i-25" value="" style="rounded=0;whiteSpace=wrap;html=1;" parent="eabMVtIRwN8n3JuVJz9i-26" vertex="1">
          <mxGeometry width="140" height="80" as="geometry" />
        </mxCell>
        <mxCell id="pRzYhvpfBcUrYCqgIIzx-31" value="Auction" style="rounded=0;whiteSpace=wrap;html=1;" parent="eabMVtIRwN8n3JuVJz9i-26" vertex="1">
          <mxGeometry x="10" y="10" width="120" height="60" as="geometry" />
        </mxCell>
        <mxCell id="eabMVtIRwN8n3JuVJz9i-29" value="" style="group" parent="1" vertex="1" connectable="0">
          <mxGeometry x="-1220" y="-1710" width="80" height="80" as="geometry" />
        </mxCell>
        <mxCell id="eabMVtIRwN8n3JuVJz9i-27" value="" style="rhombus;whiteSpace=wrap;html=1;" parent="eabMVtIRwN8n3JuVJz9i-29" vertex="1">
          <mxGeometry width="80" height="80" as="geometry" />
        </mxCell>
        <mxCell id="eabMVtIRwN8n3JuVJz9i-28" value="Sold at" style="rhombus;whiteSpace=wrap;html=1;" parent="eabMVtIRwN8n3JuVJz9i-29" vertex="1">
          <mxGeometry x="10" y="10" width="60" height="60" as="geometry" />
        </mxCell>
        <mxCell id="eabMVtIRwN8n3JuVJz9i-30" value="" style="endArrow=none;html=1;rounded=0;fontSize=12;curved=1;entryX=1;entryY=0.5;entryDx=0;entryDy=0;exitX=0;exitY=0.5;exitDx=0;exitDy=0;strokeWidth=3;startArrow=classic;startFill=1;" parent="1" source="eabMVtIRwN8n3JuVJz9i-27" target="eabMVtIRwN8n3JuVJz9i-25" edge="1">
          <mxGeometry width="50" height="50" relative="1" as="geometry">
            <mxPoint x="-1515" y="-1220" as="sourcePoint" />
            <mxPoint x="-1495" y="-1620" as="targetPoint" />
          </mxGeometry>
        </mxCell>
        <mxCell id="eabMVtIRwN8n3JuVJz9i-31" value="" style="endArrow=none;html=1;rounded=0;fontSize=12;startSize=8;endSize=8;curved=1;entryX=0;entryY=0.5;entryDx=0;entryDy=0;exitX=1;exitY=0.5;exitDx=0;exitDy=0;strokeWidth=1;startArrow=none;startFill=0;" parent="1" source="eabMVtIRwN8n3JuVJz9i-27" target="pRzYhvpfBcUrYCqgIIzx-30" edge="1">
          <mxGeometry width="50" height="50" relative="1" as="geometry">
            <mxPoint x="-1210" y="-1660" as="sourcePoint" />
            <mxPoint x="-1425" y="-1650" as="targetPoint" />
          </mxGeometry>
        </mxCell>
        <mxCell id="eabMVtIRwN8n3JuVJz9i-32" value="&lt;u&gt;Item ID&lt;/u&gt;" style="ellipse;whiteSpace=wrap;html=1;" parent="1" vertex="1">
          <mxGeometry x="-960" y="-1850" width="130" height="60" as="geometry" />
        </mxCell>
        <mxCell id="eabMVtIRwN8n3JuVJz9i-33" value="" style="endArrow=none;html=1;rounded=0;fontSize=12;startSize=8;endSize=8;curved=1;entryX=0.5;entryY=1;entryDx=0;entryDy=0;exitX=0.5;exitY=0;exitDx=0;exitDy=0;" parent="1" source="pRzYhvpfBcUrYCqgIIzx-30" target="eabMVtIRwN8n3JuVJz9i-32" edge="1">
          <mxGeometry width="50" height="50" relative="1" as="geometry">
            <mxPoint x="-1240" y="-1720" as="sourcePoint" />
            <mxPoint x="-1120" y="-1830" as="targetPoint" />
          </mxGeometry>
        </mxCell>
        <mxCell id="eabMVtIRwN8n3JuVJz9i-34" value="Description" style="ellipse;whiteSpace=wrap;html=1;" parent="1" vertex="1">
          <mxGeometry x="-800" y="-1860" width="120" height="80" as="geometry" />
        </mxCell>
        <mxCell id="eabMVtIRwN8n3JuVJz9i-36" value="" style="endArrow=none;html=1;rounded=0;fontSize=12;startSize=8;endSize=8;curved=1;entryX=0.5;entryY=1;entryDx=0;entryDy=0;exitX=0.5;exitY=0;exitDx=0;exitDy=0;" parent="1" source="pRzYhvpfBcUrYCqgIIzx-30" target="eabMVtIRwN8n3JuVJz9i-34" edge="1">
          <mxGeometry width="50" height="50" relative="1" as="geometry">
            <mxPoint x="-885" y="-1700" as="sourcePoint" />
            <mxPoint x="-875" y="-1770" as="targetPoint" />
          </mxGeometry>
        </mxCell>
        <mxCell id="eabMVtIRwN8n3JuVJz9i-38" value="Auction ID" style="ellipse;whiteSpace=wrap;html=1;" parent="1" vertex="1">
          <mxGeometry x="-1840" y="-1760" width="130" height="40" as="geometry" />
        </mxCell>
        <mxCell id="eabMVtIRwN8n3JuVJz9i-39" value="" style="endArrow=none;html=1;rounded=0;fontSize=12;startSize=8;endSize=8;curved=1;entryX=0;entryY=0.5;entryDx=0;entryDy=0;exitX=1;exitY=0.5;exitDx=0;exitDy=0;" parent="1" source="eabMVtIRwN8n3JuVJz9i-38" target="eabMVtIRwN8n3JuVJz9i-25" edge="1">
          <mxGeometry width="50" height="50" relative="1" as="geometry">
            <mxPoint x="-1670" y="-1610" as="sourcePoint" />
            <mxPoint x="-1475" y="-1920" as="targetPoint" />
          </mxGeometry>
        </mxCell>
        <mxCell id="eabMVtIRwN8n3JuVJz9i-40" value="" style="endArrow=none;dashed=1;html=1;strokeWidth=2;rounded=0;" parent="1" edge="1">
          <mxGeometry width="50" height="50" relative="1" as="geometry">
            <mxPoint x="-1807.5" y="-1730" as="sourcePoint" />
            <mxPoint x="-1742.5" y="-1730" as="targetPoint" />
          </mxGeometry>
        </mxCell>
        <mxCell id="eabMVtIRwN8n3JuVJz9i-41" value="" style="endArrow=none;html=1;rounded=0;fontSize=12;startSize=8;endSize=8;curved=1;exitX=0.5;exitY=1;exitDx=0;exitDy=0;" parent="1" source="pRzYhvpfBcUrYCqgIIzx-38" edge="1">
          <mxGeometry width="50" height="50" relative="1" as="geometry">
            <mxPoint x="-1515" y="-930" as="sourcePoint" />
            <mxPoint x="-1525" y="-940" as="targetPoint" />
          </mxGeometry>
        </mxCell>
        <mxCell id="eabMVtIRwN8n3JuVJz9i-44" value="" style="group" parent="1" vertex="1" connectable="0">
          <mxGeometry x="-1600" y="-1310" width="150" height="140" as="geometry" />
        </mxCell>
        <mxCell id="eabMVtIRwN8n3JuVJz9i-42" value="" style="rhombus;whiteSpace=wrap;html=1;" parent="eabMVtIRwN8n3JuVJz9i-44" vertex="1">
          <mxGeometry width="150" height="140" as="geometry" />
        </mxCell>
        <mxCell id="pRzYhvpfBcUrYCqgIIzx-38" value="Post bids" style="rhombus;whiteSpace=wrap;html=1;" parent="eabMVtIRwN8n3JuVJz9i-44" vertex="1">
          <mxGeometry x="20" y="20" width="110" height="100" as="geometry" />
        </mxCell>
        <mxCell id="eabMVtIRwN8n3JuVJz9i-45" value="" style="endArrow=none;html=1;rounded=0;fontSize=12;startSize=8;endSize=8;curved=1;exitX=0.5;exitY=0;exitDx=0;exitDy=0;strokeWidth=3;startArrow=classic;startFill=1;entryX=1;entryY=1;entryDx=0;entryDy=0;" parent="1" source="eabMVtIRwN8n3JuVJz9i-47" target="eabMVtIRwN8n3JuVJz9i-25" edge="1">
          <mxGeometry width="50" height="50" relative="1" as="geometry">
            <mxPoint x="-1413" y="-1490" as="sourcePoint" />
            <mxPoint x="-1455" y="-1630" as="targetPoint" />
          </mxGeometry>
        </mxCell>
        <mxCell id="eabMVtIRwN8n3JuVJz9i-46" value="" style="group" parent="1" vertex="1" connectable="0">
          <mxGeometry x="-1400" y="-1420" width="150" height="140" as="geometry" />
        </mxCell>
        <mxCell id="eabMVtIRwN8n3JuVJz9i-47" value="" style="rhombus;whiteSpace=wrap;html=1;" parent="eabMVtIRwN8n3JuVJz9i-46" vertex="1">
          <mxGeometry width="150" height="140" as="geometry" />
        </mxCell>
        <mxCell id="eabMVtIRwN8n3JuVJz9i-48" value="Post items" style="rhombus;whiteSpace=wrap;html=1;" parent="eabMVtIRwN8n3JuVJz9i-46" vertex="1">
          <mxGeometry x="20" y="20" width="110" height="100" as="geometry" />
        </mxCell>
        <mxCell id="eabMVtIRwN8n3JuVJz9i-49" value="" style="endArrow=none;html=1;rounded=0;fontSize=12;startSize=8;endSize=8;curved=1;exitX=0.5;exitY=1;exitDx=0;exitDy=0;" parent="1" source="eabMVtIRwN8n3JuVJz9i-47" edge="1">
          <mxGeometry width="50" height="50" relative="1" as="geometry">
            <mxPoint x="-1405" y="-665.8299999999999" as="sourcePoint" />
            <mxPoint x="-1325" y="-850" as="targetPoint" />
          </mxGeometry>
        </mxCell>
        <mxCell id="eabMVtIRwN8n3JuVJz9i-50" value="" style="endArrow=none;html=1;rounded=0;fontSize=12;startSize=8;endSize=8;curved=1;entryX=0;entryY=0.5;entryDx=0;entryDy=0;" parent="1" target="pRzYhvpfBcUrYCqgIIzx-10" edge="1">
          <mxGeometry width="50" height="50" relative="1" as="geometry">
            <mxPoint x="-1325" y="-850" as="sourcePoint" />
            <mxPoint x="-1025" y="-940" as="targetPoint" />
          </mxGeometry>
        </mxCell>
        <mxCell id="eabMVtIRwN8n3JuVJz9i-51" value="Upper limit for bids" style="ellipse;whiteSpace=wrap;html=1;" parent="1" vertex="1">
          <mxGeometry x="-1800" y="-1140" width="170" height="40" as="geometry" />
        </mxCell>
        <mxCell id="eabMVtIRwN8n3JuVJz9i-52" value="" style="endArrow=none;html=1;rounded=0;fontSize=12;startSize=8;endSize=8;curved=1;exitX=0.5;exitY=0;exitDx=0;exitDy=0;entryX=0;entryY=1;entryDx=0;entryDy=0;" parent="1" source="eabMVtIRwN8n3JuVJz9i-51" target="eabMVtIRwN8n3JuVJz9i-42" edge="1">
          <mxGeometry width="50" height="50" relative="1" as="geometry">
            <mxPoint x="-1195" y="-600" as="sourcePoint" />
            <mxPoint x="-1175" y="-800" as="targetPoint" />
          </mxGeometry>
        </mxCell>
        <mxCell id="eabMVtIRwN8n3JuVJz9i-53" value="Sell" style="rhombus;whiteSpace=wrap;html=1;" parent="1" vertex="1">
          <mxGeometry x="-935" y="-1620" width="80" height="80" as="geometry" />
        </mxCell>
        <mxCell id="eabMVtIRwN8n3JuVJz9i-54" value="" style="endArrow=none;html=1;rounded=0;fontSize=12;startSize=8;endSize=8;curved=1;entryX=0.5;entryY=0;entryDx=0;entryDy=0;exitX=0.5;exitY=1;exitDx=0;exitDy=0;strokeWidth=1;startArrow=none;startFill=0;" parent="1" source="pRzYhvpfBcUrYCqgIIzx-30" target="eabMVtIRwN8n3JuVJz9i-53" edge="1">
          <mxGeometry width="50" height="50" relative="1" as="geometry">
            <mxPoint x="-1130" y="-1660" as="sourcePoint" />
            <mxPoint x="-945" y="-1670" as="targetPoint" />
          </mxGeometry>
        </mxCell>
        <mxCell id="eabMVtIRwN8n3JuVJz9i-55" value="" style="endArrow=none;html=1;rounded=0;fontSize=12;startSize=8;endSize=8;curved=1;entryX=0.5;entryY=1;entryDx=0;entryDy=0;exitX=0.5;exitY=0;exitDx=0;exitDy=0;strokeWidth=3;startArrow=none;startFill=0;" parent="1" source="pRzYhvpfBcUrYCqgIIzx-1" target="eabMVtIRwN8n3JuVJz9i-53" edge="1">
          <mxGeometry width="50" height="50" relative="1" as="geometry">
            <mxPoint x="-1120" y="-1650" as="sourcePoint" />
            <mxPoint x="-935" y="-1660" as="targetPoint" />
          </mxGeometry>
        </mxCell>
        <mxCell id="eabMVtIRwN8n3JuVJz9i-56" value="Help" style="rhombus;whiteSpace=wrap;html=1;" parent="1" vertex="1">
          <mxGeometry x="-915" y="-1240" width="80" height="80" as="geometry" />
        </mxCell>
        <mxCell id="eabMVtIRwN8n3JuVJz9i-57" value="" style="endArrow=none;html=1;rounded=0;fontSize=12;startSize=8;endSize=8;curved=1;exitX=1;exitY=0.5;exitDx=0;exitDy=0;entryX=0;entryY=0.5;entryDx=0;entryDy=0;" parent="1" source="pRzYhvpfBcUrYCqgIIzx-3" target="eabMVtIRwN8n3JuVJz9i-56" edge="1">
          <mxGeometry width="50" height="50" relative="1" as="geometry">
            <mxPoint x="-1080" y="-1280" as="sourcePoint" />
            <mxPoint x="-909" y="-1280" as="targetPoint" />
          </mxGeometry>
        </mxCell>
        <mxCell id="eabMVtIRwN8n3JuVJz9i-58" value="" style="endArrow=none;html=1;rounded=0;fontSize=12;startSize=8;endSize=8;curved=1;exitX=1;exitY=0.5;exitDx=0;exitDy=0;entryX=0;entryY=0.5;entryDx=0;entryDy=0;" parent="1" source="eabMVtIRwN8n3JuVJz9i-56" target="pRzYhvpfBcUrYCqgIIzx-4" edge="1">
          <mxGeometry width="50" height="50" relative="1" as="geometry">
            <mxPoint x="-1020" y="-1190" as="sourcePoint" />
            <mxPoint x="-905" y="-1190" as="targetPoint" />
          </mxGeometry>
        </mxCell>
        <mxCell id="eabMVtIRwN8n3JuVJz9i-59" value="Set alerts" style="rhombus;whiteSpace=wrap;html=1;" parent="1" vertex="1">
          <mxGeometry x="-1490" y="-1490" width="80" height="80" as="geometry" />
        </mxCell>
        <mxCell id="eabMVtIRwN8n3JuVJz9i-60" value="" style="endArrow=none;html=1;rounded=0;fontSize=12;startSize=8;endSize=8;curved=1;exitX=0.5;exitY=1;exitDx=0;exitDy=0;entryX=0;entryY=0;entryDx=0;entryDy=0;" parent="1" source="eabMVtIRwN8n3JuVJz9i-59" target="pRzYhvpfBcUrYCqgIIzx-7" edge="1">
          <mxGeometry width="50" height="50" relative="1" as="geometry">
            <mxPoint x="-1315" y="-1270" as="sourcePoint" />
            <mxPoint x="-1315" y="-840" as="targetPoint" />
          </mxGeometry>
        </mxCell>
        <mxCell id="eabMVtIRwN8n3JuVJz9i-61" value="" style="endArrow=none;html=1;rounded=0;fontSize=12;startSize=8;endSize=8;curved=1;exitX=0.5;exitY=0;exitDx=0;exitDy=0;entryX=0;entryY=0.5;entryDx=0;entryDy=0;" parent="1" source="eabMVtIRwN8n3JuVJz9i-59" target="pRzYhvpfBcUrYCqgIIzx-30" edge="1">
          <mxGeometry width="50" height="50" relative="1" as="geometry">
            <mxPoint x="-1305" y="-1260" as="sourcePoint" />
            <mxPoint x="-1160" y="-1340" as="targetPoint" />
          </mxGeometry>
        </mxCell>
        <mxCell id="eabMVtIRwN8n3JuVJz9i-63" value="Creates" style="rhombus;whiteSpace=wrap;html=1;" parent="1" vertex="1">
          <mxGeometry x="-515" y="-830" width="80" height="80" as="geometry" />
        </mxCell>
        <mxCell id="eabMVtIRwN8n3JuVJz9i-64" value="Sales report" style="rounded=0;whiteSpace=wrap;html=1;" parent="1" vertex="1">
          <mxGeometry x="-535" y="-670" width="120" height="60" as="geometry" />
        </mxCell>
        <mxCell id="eabMVtIRwN8n3JuVJz9i-65" value="&lt;div&gt;&lt;u&gt;Sales report ID&lt;/u&gt;&lt;/div&gt;" style="ellipse;whiteSpace=wrap;html=1;" parent="1" vertex="1">
          <mxGeometry x="-660" y="-550" width="120" height="80" as="geometry" />
        </mxCell>
        <mxCell id="eabMVtIRwN8n3JuVJz9i-69" value="Total earnings" style="ellipse;whiteSpace=wrap;html=1;" parent="1" vertex="1">
          <mxGeometry x="-435" y="-540" width="120" height="80" as="geometry" />
        </mxCell>
        <mxCell id="eabMVtIRwN8n3JuVJz9i-71" value="" style="group" parent="1" vertex="1" connectable="0">
          <mxGeometry x="-565" y="-480" width="140" height="100" as="geometry" />
        </mxCell>
        <mxCell id="eabMVtIRwN8n3JuVJz9i-70" value="" style="ellipse;whiteSpace=wrap;html=1;" parent="eabMVtIRwN8n3JuVJz9i-71" vertex="1">
          <mxGeometry width="140" height="100" as="geometry" />
        </mxCell>
        <mxCell id="eabMVtIRwN8n3JuVJz9i-68" value="&lt;div&gt;Earnings per item/item type/end-user&lt;br&gt;&lt;/div&gt;" style="ellipse;whiteSpace=wrap;html=1;" parent="eabMVtIRwN8n3JuVJz9i-71" vertex="1">
          <mxGeometry x="10" y="10" width="120" height="80" as="geometry" />
        </mxCell>
        <mxCell id="eabMVtIRwN8n3JuVJz9i-73" value="" style="group" parent="1" vertex="1" connectable="0">
          <mxGeometry x="-325" y="-620" width="150" height="100" as="geometry" />
        </mxCell>
        <mxCell id="eabMVtIRwN8n3JuVJz9i-72" value="" style="ellipse;whiteSpace=wrap;html=1;" parent="eabMVtIRwN8n3JuVJz9i-73" vertex="1">
          <mxGeometry width="150" height="100.00000000000004" as="geometry" />
        </mxCell>
        <mxCell id="eabMVtIRwN8n3JuVJz9i-67" value="&lt;div&gt;Best selling items/end-users&lt;br&gt;&lt;/div&gt;" style="ellipse;whiteSpace=wrap;html=1;" parent="eabMVtIRwN8n3JuVJz9i-73" vertex="1">
          <mxGeometry x="9.999999999999996" y="10" width="129.99999999999997" height="80" as="geometry" />
        </mxCell>
        <mxCell id="eabMVtIRwN8n3JuVJz9i-74" value="" style="endArrow=none;html=1;rounded=0;fontSize=12;startSize=8;endSize=8;curved=1;exitX=0.5;exitY=0;exitDx=0;exitDy=0;entryX=0.5;entryY=1;entryDx=0;entryDy=0;" parent="1" source="eabMVtIRwN8n3JuVJz9i-65" target="eabMVtIRwN8n3JuVJz9i-64" edge="1">
          <mxGeometry width="50" height="50" relative="1" as="geometry">
            <mxPoint x="-655" y="-380" as="sourcePoint" />
            <mxPoint x="-820" y="-570" as="targetPoint" />
          </mxGeometry>
        </mxCell>
        <mxCell id="eabMVtIRwN8n3JuVJz9i-75" value="" style="endArrow=none;html=1;rounded=0;fontSize=12;startSize=8;endSize=8;curved=1;exitX=0.5;exitY=0;exitDx=0;exitDy=0;entryX=0.5;entryY=1;entryDx=0;entryDy=0;" parent="1" source="eabMVtIRwN8n3JuVJz9i-69" target="eabMVtIRwN8n3JuVJz9i-64" edge="1">
          <mxGeometry width="50" height="50" relative="1" as="geometry">
            <mxPoint x="-595" y="-510" as="sourcePoint" />
            <mxPoint x="-495" y="-570" as="targetPoint" />
          </mxGeometry>
        </mxCell>
        <mxCell id="eabMVtIRwN8n3JuVJz9i-76" value="" style="endArrow=none;html=1;rounded=0;fontSize=12;startSize=8;endSize=8;curved=1;exitX=0.5;exitY=0;exitDx=0;exitDy=0;entryX=0.5;entryY=1;entryDx=0;entryDy=0;" parent="1" source="eabMVtIRwN8n3JuVJz9i-70" target="eabMVtIRwN8n3JuVJz9i-64" edge="1">
          <mxGeometry width="50" height="50" relative="1" as="geometry">
            <mxPoint x="-365" y="-530" as="sourcePoint" />
            <mxPoint x="-465" y="-600" as="targetPoint" />
          </mxGeometry>
        </mxCell>
        <mxCell id="eabMVtIRwN8n3JuVJz9i-77" value="" style="endArrow=none;html=1;rounded=0;fontSize=12;startSize=8;endSize=8;curved=1;exitX=0;exitY=0.5;exitDx=0;exitDy=0;entryX=0.5;entryY=1;entryDx=0;entryDy=0;" parent="1" source="eabMVtIRwN8n3JuVJz9i-72" target="eabMVtIRwN8n3JuVJz9i-64" edge="1">
          <mxGeometry width="50" height="50" relative="1" as="geometry">
            <mxPoint x="-355" y="-520" as="sourcePoint" />
            <mxPoint x="-455" y="-590" as="targetPoint" />
          </mxGeometry>
        </mxCell>
        <mxCell id="eabMVtIRwN8n3JuVJz9i-78" value="" style="endArrow=none;html=1;rounded=0;fontSize=12;startSize=8;endSize=8;curved=1;strokeWidth=3;startArrow=classic;startFill=1;entryX=0.5;entryY=1;entryDx=0;entryDy=0;exitX=0.5;exitY=0;exitDx=0;exitDy=0;" parent="1" source="eabMVtIRwN8n3JuVJz9i-63" target="pRzYhvpfBcUrYCqgIIzx-8" edge="1">
          <mxGeometry width="50" height="50" relative="1" as="geometry">
            <mxPoint x="-430" y="-850" as="sourcePoint" />
            <mxPoint x="-400" y="-860" as="targetPoint" />
          </mxGeometry>
        </mxCell>
        <mxCell id="eabMVtIRwN8n3JuVJz9i-80" value="" style="endArrow=none;html=1;rounded=0;fontSize=12;startSize=8;endSize=8;curved=1;entryX=0.5;entryY=0;entryDx=0;entryDy=0;exitX=0.5;exitY=1;exitDx=0;exitDy=0;" parent="1" source="eabMVtIRwN8n3JuVJz9i-63" target="eabMVtIRwN8n3JuVJz9i-64" edge="1">
          <mxGeometry width="50" height="50" relative="1" as="geometry">
            <mxPoint x="-560" y="-740" as="sourcePoint" />
            <mxPoint x="-495" y="-840" as="targetPoint" />
          </mxGeometry>
        </mxCell>
        <mxCell id="eabMVtIRwN8n3JuVJz9i-81" value="&lt;font style=&quot;font-size: 11px;&quot;&gt;Creates accounts&lt;br&gt;&lt;/font&gt;" style="rhombus;whiteSpace=wrap;html=1;" parent="1" vertex="1">
          <mxGeometry x="-670" y="-980" width="80" height="80" as="geometry" />
        </mxCell>
        <mxCell id="eabMVtIRwN8n3JuVJz9i-83" value="" style="endArrow=none;html=1;rounded=0;fontSize=12;startSize=8;endSize=8;curved=1;exitX=0;exitY=0.5;exitDx=0;exitDy=0;entryX=1;entryY=0.5;entryDx=0;entryDy=0;" parent="1" source="eabMVtIRwN8n3JuVJz9i-81" target="pRzYhvpfBcUrYCqgIIzx-9" edge="1">
          <mxGeometry width="50" height="50" relative="1" as="geometry">
            <mxPoint x="-780" y="-960" as="sourcePoint" />
            <mxPoint x="-780" y="-1050" as="targetPoint" />
          </mxGeometry>
        </mxCell>
        <mxCell id="eabMVtIRwN8n3JuVJz9i-84" value="" style="endArrow=none;html=1;rounded=0;fontSize=12;startSize=8;endSize=8;curved=1;exitX=1;exitY=0.5;exitDx=0;exitDy=0;entryX=0;entryY=0.5;entryDx=0;entryDy=0;strokeWidth=3;startArrow=classic;startFill=1;" parent="1" source="eabMVtIRwN8n3JuVJz9i-81" target="pRzYhvpfBcUrYCqgIIzx-8" edge="1">
          <mxGeometry width="50" height="50" relative="1" as="geometry">
            <mxPoint x="-770" y="-950" as="sourcePoint" />
            <mxPoint x="-770" y="-1040" as="targetPoint" />
          </mxGeometry>
        </mxCell>
        <mxCell id="eabMVtIRwN8n3JuVJz9i-85" value="" style="triangle;whiteSpace=wrap;html=1;" parent="1" vertex="1">
          <mxGeometry x="-740" y="-1720" width="60" height="80" as="geometry" />
        </mxCell>
        <mxCell id="eabMVtIRwN8n3JuVJz9i-86" value="" style="endArrow=none;html=1;rounded=0;fontSize=12;startSize=8;endSize=8;curved=1;entryX=0;entryY=0.5;entryDx=0;entryDy=0;exitX=1;exitY=0.5;exitDx=0;exitDy=0;" parent="1" source="pRzYhvpfBcUrYCqgIIzx-30" target="eabMVtIRwN8n3JuVJz9i-85" edge="1">
          <mxGeometry width="50" height="50" relative="1" as="geometry">
            <mxPoint x="-885" y="-1700" as="sourcePoint" />
            <mxPoint x="-730" y="-1770" as="targetPoint" />
          </mxGeometry>
        </mxCell>
        <mxCell id="eabMVtIRwN8n3JuVJz9i-87" value="Motherboard" style="rounded=0;whiteSpace=wrap;html=1;" parent="1" vertex="1">
          <mxGeometry x="-515" y="-1790" width="120" height="60" as="geometry" />
        </mxCell>
        <mxCell id="eabMVtIRwN8n3JuVJz9i-88" value="Central Processing Unit (CPU)" style="rounded=0;whiteSpace=wrap;html=1;" parent="1" vertex="1">
          <mxGeometry x="-515" y="-1700" width="120" height="60" as="geometry" />
        </mxCell>
        <mxCell id="eabMVtIRwN8n3JuVJz9i-89" value="Graphics Processing Unit (GPU)" style="rounded=0;whiteSpace=wrap;html=1;" parent="1" vertex="1">
          <mxGeometry x="-520" y="-1570" width="120" height="60" as="geometry" />
        </mxCell>
        <mxCell id="eabMVtIRwN8n3JuVJz9i-91" value="" style="endArrow=none;html=1;rounded=0;fontSize=12;startSize=8;endSize=8;curved=1;entryX=0;entryY=0.5;entryDx=0;entryDy=0;exitX=1;exitY=0.5;exitDx=0;exitDy=0;" parent="1" source="eabMVtIRwN8n3JuVJz9i-85" target="eabMVtIRwN8n3JuVJz9i-87" edge="1">
          <mxGeometry width="50" height="50" relative="1" as="geometry">
            <mxPoint x="-825" y="-1670" as="sourcePoint" />
            <mxPoint x="-730" y="-1670" as="targetPoint" />
          </mxGeometry>
        </mxCell>
        <mxCell id="eabMVtIRwN8n3JuVJz9i-92" value="" style="endArrow=none;html=1;rounded=0;fontSize=12;startSize=8;endSize=8;curved=1;entryX=0;entryY=0.5;entryDx=0;entryDy=0;exitX=1;exitY=0.5;exitDx=0;exitDy=0;" parent="1" source="eabMVtIRwN8n3JuVJz9i-85" target="eabMVtIRwN8n3JuVJz9i-88" edge="1">
          <mxGeometry width="50" height="50" relative="1" as="geometry">
            <mxPoint x="-815" y="-1660" as="sourcePoint" />
            <mxPoint x="-720" y="-1660" as="targetPoint" />
          </mxGeometry>
        </mxCell>
        <mxCell id="eabMVtIRwN8n3JuVJz9i-93" value="" style="endArrow=none;html=1;rounded=0;fontSize=12;startSize=8;endSize=8;curved=1;entryX=0;entryY=0.5;entryDx=0;entryDy=0;exitX=1;exitY=0.5;exitDx=0;exitDy=0;" parent="1" source="eabMVtIRwN8n3JuVJz9i-85" target="eabMVtIRwN8n3JuVJz9i-89" edge="1">
          <mxGeometry width="50" height="50" relative="1" as="geometry">
            <mxPoint x="-805" y="-1650" as="sourcePoint" />
            <mxPoint x="-710" y="-1650" as="targetPoint" />
          </mxGeometry>
        </mxCell>
        <mxCell id="jhJ9WVoDIxDGHMta870i-1" value="Power Supply Unit (PSU)" style="rounded=0;whiteSpace=wrap;html=1;" parent="1" vertex="1">
          <mxGeometry x="-520" y="-1880" width="120" height="60" as="geometry" />
        </mxCell>
        <mxCell id="jhJ9WVoDIxDGHMta870i-2" value="" style="endArrow=none;html=1;rounded=0;fontSize=12;startSize=8;endSize=8;curved=1;entryX=0;entryY=0.5;entryDx=0;entryDy=0;exitX=1;exitY=0.5;exitDx=0;exitDy=0;" parent="1" source="eabMVtIRwN8n3JuVJz9i-85" target="jhJ9WVoDIxDGHMta870i-1" edge="1">
          <mxGeometry width="50" height="50" relative="1" as="geometry">
            <mxPoint x="-660" y="-1770" as="sourcePoint" />
            <mxPoint x="-710" y="-1760" as="targetPoint" />
          </mxGeometry>
        </mxCell>
        <mxCell id="jhJ9WVoDIxDGHMta870i-3" value="Monitor" style="rounded=0;whiteSpace=wrap;html=1;" parent="1" vertex="1">
          <mxGeometry x="-520" y="-1260" width="120" height="60" as="geometry" />
        </mxCell>
        <mxCell id="jhJ9WVoDIxDGHMta870i-4" value="" style="endArrow=none;html=1;rounded=0;fontSize=12;startSize=8;endSize=8;curved=1;entryX=0;entryY=0.5;entryDx=0;entryDy=0;exitX=1;exitY=0.5;exitDx=0;exitDy=0;" parent="1" source="eabMVtIRwN8n3JuVJz9i-85" target="jhJ9WVoDIxDGHMta870i-3" edge="1">
          <mxGeometry width="50" height="50" relative="1" as="geometry">
            <mxPoint x="-670" y="-1670" as="sourcePoint" />
            <mxPoint x="-700" y="-1640" as="targetPoint" />
          </mxGeometry>
        </mxCell>
        <mxCell id="jhJ9WVoDIxDGHMta870i-5" value="Hard Drive" style="rounded=0;whiteSpace=wrap;html=1;" parent="1" vertex="1">
          <mxGeometry x="-520" y="-1472.5" width="120" height="60" as="geometry" />
        </mxCell>
        <mxCell id="jhJ9WVoDIxDGHMta870i-6" value="" style="endArrow=none;html=1;rounded=0;fontSize=12;startSize=8;endSize=8;curved=1;entryX=0;entryY=0.5;entryDx=0;entryDy=0;exitX=1;exitY=0.5;exitDx=0;exitDy=0;" parent="1" source="eabMVtIRwN8n3JuVJz9i-85" target="jhJ9WVoDIxDGHMta870i-5" edge="1">
          <mxGeometry width="50" height="50" relative="1" as="geometry">
            <mxPoint x="-660" y="-1660" as="sourcePoint" />
            <mxPoint x="-690" y="-1630" as="targetPoint" />
          </mxGeometry>
        </mxCell>
        <mxCell id="jhJ9WVoDIxDGHMta870i-7" value="Random Access Memory (RAM)" style="rounded=0;whiteSpace=wrap;html=1;" parent="1" vertex="1">
          <mxGeometry x="-520" y="-1360" width="120" height="60" as="geometry" />
        </mxCell>
        <mxCell id="jhJ9WVoDIxDGHMta870i-8" value="" style="endArrow=none;html=1;rounded=0;fontSize=12;startSize=8;endSize=8;curved=1;entryX=0;entryY=0.5;entryDx=0;entryDy=0;exitX=1;exitY=0.5;exitDx=0;exitDy=0;" parent="1" source="eabMVtIRwN8n3JuVJz9i-85" target="jhJ9WVoDIxDGHMta870i-7" edge="1">
          <mxGeometry width="50" height="50" relative="1" as="geometry">
            <mxPoint x="-650" y="-1650" as="sourcePoint" />
            <mxPoint x="-680" y="-1620" as="targetPoint" />
          </mxGeometry>
        </mxCell>
        <mxCell id="jhJ9WVoDIxDGHMta870i-12" value="Watts" style="ellipse;whiteSpace=wrap;html=1;" parent="1" vertex="1">
          <mxGeometry x="-240" y="-1900" width="120" height="30" as="geometry" />
        </mxCell>
        <mxCell id="jhJ9WVoDIxDGHMta870i-13" value="Efficiency" style="ellipse;whiteSpace=wrap;html=1;" parent="1" vertex="1">
          <mxGeometry x="-240" y="-1860" width="120" height="40" as="geometry" />
        </mxCell>
        <mxCell id="jhJ9WVoDIxDGHMta870i-14" value="Size" style="ellipse;whiteSpace=wrap;html=1;" parent="1" vertex="1">
          <mxGeometry x="-240" y="-1810" width="120" height="40" as="geometry" />
        </mxCell>
        <mxCell id="jhJ9WVoDIxDGHMta870i-15" value="" style="endArrow=none;html=1;rounded=0;exitX=1;exitY=0.5;exitDx=0;exitDy=0;entryX=0;entryY=0.5;entryDx=0;entryDy=0;" parent="1" source="jhJ9WVoDIxDGHMta870i-1" target="jhJ9WVoDIxDGHMta870i-12" edge="1">
          <mxGeometry width="50" height="50" relative="1" as="geometry">
            <mxPoint x="-310" y="-1470" as="sourcePoint" />
            <mxPoint x="-260" y="-1520" as="targetPoint" />
          </mxGeometry>
        </mxCell>
        <mxCell id="jhJ9WVoDIxDGHMta870i-16" value="" style="endArrow=none;html=1;rounded=0;exitX=1;exitY=0.5;exitDx=0;exitDy=0;entryX=0;entryY=0.5;entryDx=0;entryDy=0;" parent="1" source="jhJ9WVoDIxDGHMta870i-1" target="jhJ9WVoDIxDGHMta870i-13" edge="1">
          <mxGeometry width="50" height="50" relative="1" as="geometry">
            <mxPoint x="-390" y="-1810" as="sourcePoint" />
            <mxPoint x="-200" y="-1775" as="targetPoint" />
          </mxGeometry>
        </mxCell>
        <mxCell id="jhJ9WVoDIxDGHMta870i-17" value="" style="endArrow=none;html=1;rounded=0;exitX=1;exitY=0.5;exitDx=0;exitDy=0;entryX=0;entryY=0.5;entryDx=0;entryDy=0;" parent="1" source="jhJ9WVoDIxDGHMta870i-1" target="jhJ9WVoDIxDGHMta870i-14" edge="1">
          <mxGeometry width="50" height="50" relative="1" as="geometry">
            <mxPoint x="-390" y="-1810" as="sourcePoint" />
            <mxPoint x="-220" y="-1670" as="targetPoint" />
          </mxGeometry>
        </mxCell>
        <mxCell id="jhJ9WVoDIxDGHMta870i-18" value="# of storage connectors" style="ellipse;whiteSpace=wrap;html=1;" parent="1" vertex="1">
          <mxGeometry x="-250" y="-1670" width="140" height="40" as="geometry" />
        </mxCell>
        <mxCell id="jhJ9WVoDIxDGHMta870i-19" value="RAM&amp;nbsp; slots" style="ellipse;whiteSpace=wrap;html=1;" parent="1" vertex="1">
          <mxGeometry x="-240" y="-1760" width="120" height="40" as="geometry" />
        </mxCell>
        <mxCell id="jhJ9WVoDIxDGHMta870i-20" value="Chipset" style="ellipse;whiteSpace=wrap;html=1;" parent="1" vertex="1">
          <mxGeometry x="-240" y="-1710" width="120" height="40" as="geometry" />
        </mxCell>
        <mxCell id="jhJ9WVoDIxDGHMta870i-21" value="" style="endArrow=none;html=1;rounded=0;exitX=1;exitY=0.5;exitDx=0;exitDy=0;entryX=0;entryY=0.5;entryDx=0;entryDy=0;" parent="1" source="eabMVtIRwN8n3JuVJz9i-87" target="jhJ9WVoDIxDGHMta870i-19" edge="1">
          <mxGeometry width="50" height="50" relative="1" as="geometry">
            <mxPoint x="-390" y="-1810" as="sourcePoint" />
            <mxPoint x="-230" y="-1760" as="targetPoint" />
          </mxGeometry>
        </mxCell>
        <mxCell id="jhJ9WVoDIxDGHMta870i-22" value="" style="endArrow=none;html=1;rounded=0;exitX=1;exitY=0.5;exitDx=0;exitDy=0;entryX=0;entryY=0.5;entryDx=0;entryDy=0;" parent="1" source="eabMVtIRwN8n3JuVJz9i-87" target="jhJ9WVoDIxDGHMta870i-20" edge="1">
          <mxGeometry width="50" height="50" relative="1" as="geometry">
            <mxPoint x="-390" y="-1730" as="sourcePoint" />
            <mxPoint x="-285" y="-1700" as="targetPoint" />
          </mxGeometry>
        </mxCell>
        <mxCell id="jhJ9WVoDIxDGHMta870i-23" value="" style="endArrow=none;html=1;rounded=0;exitX=1;exitY=0.5;exitDx=0;exitDy=0;entryX=0;entryY=0.5;entryDx=0;entryDy=0;" parent="1" source="eabMVtIRwN8n3JuVJz9i-87" target="jhJ9WVoDIxDGHMta870i-18" edge="1">
          <mxGeometry width="50" height="50" relative="1" as="geometry">
            <mxPoint x="-390" y="-1730" as="sourcePoint" />
            <mxPoint x="-240" y="-1640" as="targetPoint" />
          </mxGeometry>
        </mxCell>
        <mxCell id="jhJ9WVoDIxDGHMta870i-25" value="Number of cores" style="ellipse;whiteSpace=wrap;html=1;" parent="1" vertex="1">
          <mxGeometry x="-260" y="-1620" width="140" height="40" as="geometry" />
        </mxCell>
        <mxCell id="jhJ9WVoDIxDGHMta870i-26" value="Product Line" style="ellipse;whiteSpace=wrap;html=1;" parent="1" vertex="1">
          <mxGeometry x="-260" y="-1512.5" width="140" height="40" as="geometry" />
        </mxCell>
        <mxCell id="jhJ9WVoDIxDGHMta870i-27" value="Socket" style="ellipse;whiteSpace=wrap;html=1;" parent="1" vertex="1">
          <mxGeometry x="-260" y="-1570" width="140" height="40" as="geometry" />
        </mxCell>
        <mxCell id="jhJ9WVoDIxDGHMta870i-28" value="" style="endArrow=none;html=1;rounded=0;exitX=1;exitY=0.5;exitDx=0;exitDy=0;entryX=0;entryY=0.5;entryDx=0;entryDy=0;" parent="1" source="eabMVtIRwN8n3JuVJz9i-88" target="jhJ9WVoDIxDGHMta870i-25" edge="1">
          <mxGeometry width="50" height="50" relative="1" as="geometry">
            <mxPoint x="-385" y="-1750" as="sourcePoint" />
            <mxPoint x="-240" y="-1640" as="targetPoint" />
          </mxGeometry>
        </mxCell>
        <mxCell id="jhJ9WVoDIxDGHMta870i-29" value="" style="endArrow=none;html=1;rounded=0;exitX=1;exitY=0.5;exitDx=0;exitDy=0;entryX=0;entryY=0.5;entryDx=0;entryDy=0;" parent="1" source="eabMVtIRwN8n3JuVJz9i-88" target="jhJ9WVoDIxDGHMta870i-27" edge="1">
          <mxGeometry width="50" height="50" relative="1" as="geometry">
            <mxPoint x="-385" y="-1660" as="sourcePoint" />
            <mxPoint x="-250" y="-1590" as="targetPoint" />
          </mxGeometry>
        </mxCell>
        <mxCell id="jhJ9WVoDIxDGHMta870i-30" value="" style="endArrow=none;html=1;rounded=0;exitX=1;exitY=0.5;exitDx=0;exitDy=0;entryX=0;entryY=0.5;entryDx=0;entryDy=0;" parent="1" source="eabMVtIRwN8n3JuVJz9i-88" target="jhJ9WVoDIxDGHMta870i-26" edge="1">
          <mxGeometry width="50" height="50" relative="1" as="geometry">
            <mxPoint x="-385" y="-1660" as="sourcePoint" />
            <mxPoint x="-250" y="-1540" as="targetPoint" />
          </mxGeometry>
        </mxCell>
        <mxCell id="jhJ9WVoDIxDGHMta870i-31" value="Storage capacity" style="ellipse;whiteSpace=wrap;html=1;" parent="1" vertex="1">
          <mxGeometry x="-325" y="-1390" width="140" height="40" as="geometry" />
        </mxCell>
        <mxCell id="jhJ9WVoDIxDGHMta870i-33" value="Video memory (VRAM)" style="ellipse;whiteSpace=wrap;html=1;" parent="1" vertex="1">
          <mxGeometry x="-325" y="-1452.5" width="140" height="40" as="geometry" />
        </mxCell>
        <mxCell id="jhJ9WVoDIxDGHMta870i-34" value="Storage capacity" style="ellipse;whiteSpace=wrap;html=1;" parent="1" vertex="1">
          <mxGeometry x="-270" y="-1317.5" width="140" height="40" as="geometry" />
        </mxCell>
        <mxCell id="jhJ9WVoDIxDGHMta870i-35" value="Stick type" style="ellipse;whiteSpace=wrap;html=1;" parent="1" vertex="1">
          <mxGeometry x="-270" y="-1210" width="140" height="40" as="geometry" />
        </mxCell>
        <mxCell id="jhJ9WVoDIxDGHMta870i-36" value="Clock frequency" style="ellipse;whiteSpace=wrap;html=1;" parent="1" vertex="1">
          <mxGeometry x="-270" y="-1267.5" width="140" height="40" as="geometry" />
        </mxCell>
        <mxCell id="jhJ9WVoDIxDGHMta870i-37" value="" style="endArrow=none;html=1;rounded=0;exitX=1;exitY=0.5;exitDx=0;exitDy=0;entryX=0;entryY=0.5;entryDx=0;entryDy=0;" parent="1" source="jhJ9WVoDIxDGHMta870i-5" target="jhJ9WVoDIxDGHMta870i-31" edge="1">
          <mxGeometry width="50" height="50" relative="1" as="geometry">
            <mxPoint x="-415" y="-1455.5" as="sourcePoint" />
            <mxPoint x="-280" y="-1277.5" as="targetPoint" />
          </mxGeometry>
        </mxCell>
        <mxCell id="jhJ9WVoDIxDGHMta870i-38" value="" style="endArrow=none;html=1;rounded=0;exitX=1;exitY=0.5;exitDx=0;exitDy=0;entryX=0;entryY=0.5;entryDx=0;entryDy=0;" parent="1" source="eabMVtIRwN8n3JuVJz9i-89" target="jhJ9WVoDIxDGHMta870i-33" edge="1">
          <mxGeometry width="50" height="50" relative="1" as="geometry">
            <mxPoint x="-375" y="-1650" as="sourcePoint" />
            <mxPoint x="-240" y="-1472" as="targetPoint" />
          </mxGeometry>
        </mxCell>
        <mxCell id="jhJ9WVoDIxDGHMta870i-40" value="" style="endArrow=none;html=1;rounded=0;exitX=1;exitY=0.5;exitDx=0;exitDy=0;entryX=0;entryY=0.5;entryDx=0;entryDy=0;" parent="1" source="jhJ9WVoDIxDGHMta870i-7" target="jhJ9WVoDIxDGHMta870i-34" edge="1">
          <mxGeometry width="50" height="50" relative="1" as="geometry">
            <mxPoint x="-390" y="-1433" as="sourcePoint" />
            <mxPoint x="-315" y="-1360" as="targetPoint" />
          </mxGeometry>
        </mxCell>
        <mxCell id="jhJ9WVoDIxDGHMta870i-41" value="" style="endArrow=none;html=1;rounded=0;exitX=1;exitY=0.5;exitDx=0;exitDy=0;entryX=0;entryY=0.5;entryDx=0;entryDy=0;" parent="1" source="jhJ9WVoDIxDGHMta870i-7" target="jhJ9WVoDIxDGHMta870i-36" edge="1">
          <mxGeometry width="50" height="50" relative="1" as="geometry">
            <mxPoint x="-380" y="-1423" as="sourcePoint" />
            <mxPoint x="-305" y="-1350" as="targetPoint" />
          </mxGeometry>
        </mxCell>
        <mxCell id="jhJ9WVoDIxDGHMta870i-42" value="" style="endArrow=none;html=1;rounded=0;exitX=1;exitY=0.5;exitDx=0;exitDy=0;entryX=0;entryY=0.5;entryDx=0;entryDy=0;" parent="1" source="jhJ9WVoDIxDGHMta870i-7" target="jhJ9WVoDIxDGHMta870i-35" edge="1">
          <mxGeometry width="50" height="50" relative="1" as="geometry">
            <mxPoint x="-370" y="-1413" as="sourcePoint" />
            <mxPoint x="-295" y="-1340" as="targetPoint" />
          </mxGeometry>
        </mxCell>
        <mxCell id="jhJ9WVoDIxDGHMta870i-44" value="Refresh rate" style="ellipse;whiteSpace=wrap;html=1;" parent="1" vertex="1">
          <mxGeometry x="-300" y="-1100" width="140" height="40" as="geometry" />
        </mxCell>
        <mxCell id="jhJ9WVoDIxDGHMta870i-45" value="Size" style="ellipse;whiteSpace=wrap;html=1;" parent="1" vertex="1">
          <mxGeometry x="-395" y="-1050" width="140" height="40" as="geometry" />
        </mxCell>
        <mxCell id="jhJ9WVoDIxDGHMta870i-47" value="Resolution" style="ellipse;whiteSpace=wrap;html=1;" parent="1" vertex="1">
          <mxGeometry x="-300" y="-1150" width="140" height="40" as="geometry" />
        </mxCell>
        <mxCell id="jhJ9WVoDIxDGHMta870i-48" value="" style="endArrow=none;html=1;rounded=0;exitX=0.5;exitY=1;exitDx=0;exitDy=0;entryX=0;entryY=0.5;entryDx=0;entryDy=0;" parent="1" source="jhJ9WVoDIxDGHMta870i-3" target="jhJ9WVoDIxDGHMta870i-47" edge="1">
          <mxGeometry width="50" height="50" relative="1" as="geometry">
            <mxPoint x="-390" y="-1320" as="sourcePoint" />
            <mxPoint x="-260" y="-1180" as="targetPoint" />
          </mxGeometry>
        </mxCell>
        <mxCell id="jhJ9WVoDIxDGHMta870i-49" value="" style="endArrow=none;html=1;rounded=0;exitX=0.5;exitY=1;exitDx=0;exitDy=0;entryX=0;entryY=0.5;entryDx=0;entryDy=0;" parent="1" source="jhJ9WVoDIxDGHMta870i-3" target="jhJ9WVoDIxDGHMta870i-45" edge="1">
          <mxGeometry width="50" height="50" relative="1" as="geometry">
            <mxPoint x="-380" y="-1310" as="sourcePoint" />
            <mxPoint x="-250" y="-1170" as="targetPoint" />
          </mxGeometry>
        </mxCell>
        <mxCell id="jhJ9WVoDIxDGHMta870i-50" value="" style="endArrow=none;html=1;rounded=0;exitX=0.5;exitY=1;exitDx=0;exitDy=0;entryX=0;entryY=0.5;entryDx=0;entryDy=0;" parent="1" source="jhJ9WVoDIxDGHMta870i-3" target="jhJ9WVoDIxDGHMta870i-44" edge="1">
          <mxGeometry width="50" height="50" relative="1" as="geometry">
            <mxPoint x="-370" y="-1300" as="sourcePoint" />
            <mxPoint x="-240" y="-1160" as="targetPoint" />
          </mxGeometry>
        </mxCell>
        <mxCell id="loETbrJK0HfF219MZSG6-1" value="{complete, disjoint}" style="text;html=1;align=center;verticalAlign=middle;whiteSpace=wrap;rounded=0;fontSize=16;" vertex="1" parent="1">
          <mxGeometry x="-825" y="-1315" width="145" height="30" as="geometry" />
        </mxCell>
        <mxCell id="loETbrJK0HfF219MZSG6-3" value="Bid" style="ellipse;whiteSpace=wrap;html=1;" vertex="1" parent="1">
          <mxGeometry x="-1820" y="-1540" width="100" height="40" as="geometry" />
        </mxCell>
        <mxCell id="loETbrJK0HfF219MZSG6-4" value="" style="endArrow=none;html=1;rounded=0;fontSize=12;startSize=8;endSize=8;curved=1;entryX=0;entryY=0.5;entryDx=0;entryDy=0;exitX=0.5;exitY=0;exitDx=0;exitDy=0;" edge="1" parent="1" source="loETbrJK0HfF219MZSG6-3" target="eabMVtIRwN8n3JuVJz9i-25">
          <mxGeometry width="50" height="50" relative="1" as="geometry">
            <mxPoint x="-1720" y="-1600" as="sourcePoint" />
            <mxPoint x="-1585" y="-1660" as="targetPoint" />
          </mxGeometry>
        </mxCell>
      </root>
    </mxGraphModel>
  </diagram>
</mxfile>
